<?xml version="1.0" encoding="UTF-8" standalone="no"?>
<!-- Created with Inkscape (http://www.inkscape.org/) -->

<svg
   xmlns:dc="http://purl.org/dc/elements/1.1/"
   xmlns:cc="http://creativecommons.org/ns#"
   xmlns:rdf="http://www.w3.org/1999/02/22-rdf-syntax-ns#"
   xmlns:svg="http://www.w3.org/2000/svg"
   xmlns="http://www.w3.org/2000/svg"
   xmlns:sodipodi="http://sodipodi.sourceforge.net/DTD/sodipodi-0.dtd"
   xmlns:inkscape="http://www.inkscape.org/namespaces/inkscape"
   width="1052.3622"
   height="1488.189"
   id="svg2"
   version="1.1"
   inkscape:version="0.48.4 r9939"
   sodipodi:docname="New document 1">
  <defs
     id="defs4" />
  <sodipodi:namedview
     id="base"
     pagecolor="#ffffff"
     bordercolor="#666666"
     borderopacity="1.0"
     inkscape:pageopacity="0.0"
     inkscape:pageshadow="2"
     inkscape:zoom="0.45254834"
     inkscape:cx="925.92781"
     inkscape:cy="741.64881"
     inkscape:document-units="px"
     inkscape:current-layer="layer1"
     showgrid="false"
     inkscape:window-width="1375"
     inkscape:window-height="877"
     inkscape:window-x="57"
     inkscape:window-y="-8"
     inkscape:window-maximized="1" />
  <metadata
     id="metadata7">
    <rdf:RDF>
      <cc:Work
         rdf:about="">
        <dc:format>image/svg+xml</dc:format>
        <dc:type
           rdf:resource="http://purl.org/dc/dcmitype/StillImage" />
        <dc:title></dc:title>
      </cc:Work>
    </rdf:RDF>
  </metadata>
  <g
     inkscape:label="Layer 1"
     inkscape:groupmode="layer"
     id="layer1"
     transform="translate(0,435.82679)">
    <g
       id="g2989"
       transform="matrix(0.00210047,0,0,0.00210047,88.353973,-129.59783)">
      <path
         id="path2991"
         d="m 1068.3779,422796.51 421728.1321,0 0,-421728.1321 -421728.1321,0 z"
         style="fill:#000000;fill-opacity:1;fill-rule:evenodd;stroke:none"
         inkscape:connector-curvature="0" />
      <path
         id="path2993"
         d="m 211932.44,357906.61 c 80409.5,0 145974.17,-65564.67 145974.17,-145974.17 0,-80409.49 -65564.67,-145974.16 -145974.17,-145974.16 -80409.49,0 -145974.16,65564.67 -145974.16,145974.16 0,80409.5 65564.67,145974.17 145974.16,145974.17 z"
         style="fill:#ffffff;fill-opacity:1;fill-rule:evenodd;stroke:none"
         inkscape:connector-curvature="0" />
      <path
         id="path2995"
         d="m 211932.44,325489.77 c 62528.23,0 113557.33,-51029.1 113557.33,-113557.33 0,-62528.22 -51029.1,-113529.21 -113557.33,-113529.21 -62528.22,0 -113529.21,51000.99 -113529.21,113529.21 0,62528.23 51000.99,113557.33 113529.21,113557.33 z"
         style="fill:#000000;fill-opacity:1;fill-rule:evenodd;stroke:none"
         inkscape:connector-curvature="0" />
      <path
         id="path2997"
         d="m 211932.44,293044.82 c 44675.07,0 81112.38,-36437.31 81112.38,-81112.38 0,-44675.06 -36437.31,-81112.37 -81112.38,-81112.37 -44675.06,0 -81112.37,36437.31 -81112.37,81112.37 0,44675.07 36437.31,81112.38 81112.37,81112.38 z"
         style="fill:#ffffff;fill-opacity:1;fill-rule:evenodd;stroke:none"
         inkscape:connector-curvature="0" />
      <path
         id="path2999"
         d="m 211932.44,260599.87 c 26793.8,0 48667.43,-21873.63 48667.43,-48667.43 0,-26793.79 -21873.63,-48667.42 -48667.43,-48667.42 -26793.79,0 -48667.42,21873.63 -48667.42,48667.42 0,26793.8 21873.63,48667.43 48667.42,48667.43 z"
         style="fill:#000000;fill-opacity:1;fill-rule:evenodd;stroke:none"
         inkscape:connector-curvature="0" />
      <path
         id="path3001"
         d="m 211932.44,228154.92 c 8940.64,0 16222.48,-7281.84 16222.48,-16222.48 0,-8940.63 -7281.84,-16222.47 -16222.48,-16222.47 -8940.63,0 -16222.47,7281.84 -16222.47,16222.47 0,8940.64 7281.84,16222.48 16222.47,16222.48 z"
         style="fill:#ffffff;fill-opacity:1;fill-rule:evenodd;stroke:none"
         inkscape:connector-curvature="0" />
      <path
         id="path3003"
         d="m 46755.592,69613.257 c 12595.614,0 22857.665,-10262.051 22857.665,-22857.665 0,-12567.498 -10262.051,-22829.549 -22857.665,-22829.549 -12567.498,0 -22829.549,10262.051 -22829.549,22829.549 0,12595.614 10262.051,22857.665 22829.549,22857.665 z"
         style="fill:#ffffff;fill-opacity:1;fill-rule:evenodd;stroke:none"
         inkscape:connector-curvature="0" />
    </g>
  </g>
</svg>
